<svg width="86" height="86" viewBox="0 0 86 86" fill="none" xmlns="http://www.w3.org/2000/svg">
<g clip-path="url(#clip0_10_116)">
<path d="M62.1539 49.7438C60.0498 49.4672 57.9744 48.9512 55.9907 48.2116C53.7892 47.3889 51.2866 47.9192 49.6081 49.5747L47.4625 51.7146C42.6451 48.7834 38.5932 44.7401 35.6535 39.9327L37.8021 37.7884C39.4561 36.1172 39.9907 33.6175 39.1638 31.4217C38.4214 29.4365 37.9039 27.3668 37.6259 25.2541C37.2031 22.2671 34.6232 19.9939 31.5946 20.0641H24.676C24.4954 20.0641 24.3149 20.0726 24.1372 20.0899C22.529 20.2332 21.0741 20.9958 20.0393 22.2327C19.0044 23.4725 18.5143 25.0391 18.6618 26.6674C19.4386 33.9701 21.9642 41.088 25.9574 47.2411C29.5865 52.9414 34.5229 57.8692 40.2247 61.4854C46.3692 65.4613 53.467 67.9827 60.7799 68.7753C60.9662 68.7924 61.1527 68.7996 61.3447 68.7996C62.96 68.7939 64.4751 68.1604 65.613 67.0123C66.751 65.8685 67.3731 64.3492 67.3674 62.7424V55.8541C67.4341 52.7968 65.201 50.1725 62.1539 49.7438ZM64.5031 55.8412V62.7512C64.506 63.5969 64.1791 64.3937 63.5815 64.9957C62.9838 65.5977 62.1868 65.9303 61.3426 65.9331C61.2395 65.9331 61.1362 65.9288 61.0616 65.923C54.2219 65.182 47.5569 62.8142 41.7735 59.0718C36.4144 55.6734 31.7818 51.0496 28.3706 45.6933C24.6139 39.9055 22.2432 33.2234 21.515 26.3894C21.4376 25.5465 21.6956 24.7238 22.2388 24.0746C22.7835 23.4239 23.5488 23.024 24.3973 22.9481C24.4906 22.9395 24.5836 22.9338 24.6768 22.9338H31.6098C31.6184 22.9338 31.63 22.9338 31.6399 22.9338C33.2166 22.9338 34.5667 24.1005 34.7889 25.6485C35.0943 27.9619 35.6632 30.2437 36.4831 32.4338C36.9159 33.5876 36.6364 34.8991 35.7736 35.7691L32.8452 38.6931C32.3865 39.149 32.292 39.8556 32.6116 40.4175C36.0215 46.4016 40.9921 51.3623 46.9864 54.7635C47.5469 55.0803 48.2505 54.9871 48.7063 54.5314L51.6303 51.6146C52.5103 50.7474 53.8248 50.4637 54.9886 50.9023C57.1772 51.7178 59.4634 52.2855 61.7696 52.5893C63.3678 52.8144 64.5431 54.1975 64.5029 55.8071C64.5031 55.8168 64.5031 55.8298 64.5031 55.8412Z" fill="black"/>
<path d="M43.0005 0.000976562C19.2906 0.000976562 0.000994784 19.2906 0.000994784 43.0005C0.000994784 51.2004 2.3144 59.1496 6.69884 66.0425L0.0883375 84.0736C-0.102305 84.5895 0.0209829 85.17 0.405123 85.5643C0.680253 85.8481 1.05297 86 1.43426 86C1.58627 86 1.73962 85.9756 1.88726 85.9269L20.5907 79.6935C27.3359 83.8199 35.0686 86.0001 43.0007 86.0001C66.7105 86.0001 86.0002 66.7105 86.0002 43.0006C86.0002 19.2908 66.7104 0.000976562 43.0005 0.000976562ZM43.0018 83.1333C35.3852 83.1333 27.9649 80.9804 21.5451 76.9084C21.313 76.7623 21.0462 76.6862 20.7768 76.6862C20.6235 76.6862 20.4714 76.7106 20.3238 76.7608L3.80477 82.2662L9.63843 66.3564C9.79463 65.9293 9.74021 65.4534 9.48944 65.0737C5.15791 58.5134 2.86903 50.881 2.86903 43.0006C2.86903 20.8717 20.8729 2.86783 43.0018 2.86783C65.1308 2.86783 83.1347 20.8717 83.1347 43.0006C83.1347 65.1296 65.1308 83.1333 43.0018 83.1333Z" fill="black"/>
</g>
<defs>
<clipPath id="clip0_10_116">
<rect width="86" height="86" fill="white"/>
</clipPath>
</defs>
</svg>
